<?xml version="1.0" encoding="UTF-8"?>
<svg id="Layer_1" data-name="Layer 1" xmlns="http://www.w3.org/2000/svg" xmlns:xlink="http://www.w3.org/1999/xlink" viewBox="0 0 733.27 733.27">
  <defs>
    <style>
      .cls-1 {
        fill: none;
        filter: url(#drop-shadow-1);
        stroke: #fff;
        stroke-linecap: round;
        stroke-linejoin: round;
        stroke-width: 12px;
      }

      .cls-2 {
        fill: #706087;
      }

      .cls-3 {
        fill: #402a5f;
      }

      .cls-4 {
        fill: #10002c;
      }

      .cls-5 {
        fill: #250d3f;
      }

      .cls-6 {
        fill: #fff;
      }

      .cls-7 {
        fill: #311855;
      }
    </style>
    <filter id="drop-shadow-1" x="93.95" y="19.75" width="562.56" height="706.32" filterUnits="userSpaceOnUse">
      <feOffset dx="9" dy="9"/>
      <feGaussianBlur result="blur" stdDeviation="18"/>
      <feFlood flood-color="#231f20" flood-opacity=".76"/>
      <feComposite in2="blur" operator="in"/>
      <feComposite in="SourceGraphic"/>
    </filter>
  </defs>
  <rect class="cls-3" width="733.27" height="733.27" rx="38.77" ry="38.77"/>
  <g>
    <g>
      <path class="cls-7" d="M366.14,608.18l-103.47-78.05c-42.81-32.92-69.25-82.41-72.95-137.62l-.22-132.06,176.36-132.92,176.87,133.13-.16,121.23c-.62,58.26-27.09,111.62-71.77,146.94l-104.67,79.34ZM277.62,313.23c-.55,34.52-3.3,68.63,11.95,100.69l-71.49,42.92c11.82,23.03,26.79,44.52,47.78,60.28,33.79,25.37,66.36,51.74,100.75,74.75l95.63-71.89c21.88-16.45,38.65-37.51,51.2-62.94l-71.15-42.99c6.4-15.35,12.17-31.17,12.27-48.66l.3-51.83,77.07-46.07-166.15-124.07-164.83,123.82,76.66,45.98Z"/>
      <path class="cls-3" d="M454.87,313.56l-.3,51.83c-.1,17.49-5.87,33.31-12.27,48.66-8.64,17.55-20.91,33.06-36.78,44.95l-39.31,29.44c-13.52-9.52-26.45-19.3-40.02-30.03-15.08-11.92-28.32-27.05-36.61-44.5-15.25-32.07-12.49-66.17-11.95-100.69l87.8-66.17,89.44,66.51Z"/>
      <polygon class="cls-5" points="454.87 313.56 365.42 247.06 365.78 143.43 531.93 267.49 454.87 313.56"/>
      <polygon class="cls-2" points="365.78 143.43 365.42 247.06 277.62 313.23 200.95 267.25 365.78 143.43"/>
      <path class="cls-5" d="M366.2,488.45l-.42,99.13c0,1.85.62,3.15.82,4.29-34.39-23.02-66.96-49.38-100.75-74.75-20.99-15.76-35.95-37.25-47.78-60.28l71.49-42.92c8.3,17.45,21.53,32.57,36.61,44.5,13.57,10.73,26.51,20.51,40.02,30.03Z"/>
      <path class="cls-4" d="M366.61,591.87c-.2-1.14-.83-2.44-.82-4.29l.42-99.13,39.31-29.44c15.87-11.89,28.15-27.39,36.78-44.95l71.15,42.99c-12.55,25.43-29.33,46.49-51.2,62.94l-95.63,71.89Z"/>
    </g>
    <path class="cls-6" d="M366.32,618.75l-115.13-84.96c-47.12-36.41-75.54-91.9-77.16-152.03l-.06-130.52,192.15-142.27,192.43,142.36-.09,126.37c-.62,62.38-29.85,119.86-78.98,157.27l-113.15,83.78ZM366.31,571.66l91.41-68c39.02-30.27,62.14-76,62.68-125.93l.14-103.9-154.48-114.1-154.03,113.92.19,113.18c3.23,47.31,26.32,89.73,63.71,117.94l90.37,66.89Z"/>
  </g>
  <path class="cls-6" d="M519.33,400.01c-.5,50.23-24.05,96.53-63.63,126.66l-91.16,67.47-92.76-68.42c-37.97-29.32-60.33-77.29-61.63-125.71h309.19Z"/>
  <g>
    <circle class="cls-3" cx="232.45" cy="378.35" r="49.06"/>
    <path class="cls-6" d="M232.45,344.96c-18.44,0-33.38,14.95-33.38,33.38s14.95,33.38,33.38,33.38,33.38-14.95,33.38-33.38-14.95-33.38-33.38-33.38ZM232.45,392.83c-8,0-14.48-6.48-14.48-14.48s6.48-14.48,14.48-14.48,14.48,6.48,14.48,14.48-6.48,14.48-14.48,14.48Z"/>
    <path class="cls-6" d="M232.45,319.77c-32.35,0-58.57,26.22-58.57,58.57s26.22,58.57,58.57,58.57,58.57-26.22,58.57-58.57-26.22-58.57-58.57-58.57ZM232.45,427.41c-27.1,0-49.06-21.97-49.06-49.06s21.97-49.06,49.06-49.06,49.06,21.97,49.06,49.06-21.97,49.06-49.06,49.06Z"/>
  </g>
  <g>
    <circle class="cls-3" cx="495.51" cy="378.35" r="49.06"/>
    <path class="cls-6" d="M495.51,344.96c-18.44,0-33.38,14.95-33.38,33.38s14.95,33.38,33.38,33.38,33.38-14.95,33.38-33.38-14.95-33.38-33.38-33.38ZM495.51,392.83c-8,0-14.48-6.48-14.48-14.48s6.48-14.48,14.48-14.48,14.48,6.48,14.48,14.48-6.48,14.48-14.48,14.48Z"/>
    <path class="cls-6" d="M495.51,319.77c-32.35,0-58.57,26.22-58.57,58.57s26.22,58.57,58.57,58.57,58.57-26.22,58.57-58.57-26.22-58.57-58.57-58.57ZM495.51,427.41c-27.1,0-49.06-21.97-49.06-49.06s21.97-49.06,49.06-49.06,49.06,21.97,49.06,49.06-21.97,49.06-49.06,49.06Z"/>
  </g>
  <path class="cls-3" d="M314.94,462.33c-.75,3.42.6,7.58,3.88,8.82,3.33,1.26,6.99-.93,9.37-3.58,4.77-5.32,6.8-12.97,5.3-19.96-3.14-1.25-10.48,3.52-12.47,5.77s-5.32,5.53-6.08,8.95Z"/>
  <path class="cls-3" d="M411.43,470.99c2.45,2.5,6.68,3.65,9.51,1.58,2.87-2.1,3.05-6.36,2.14-9.8-1.84-6.9-7.13-12.79-13.8-15.36-2.76,1.94-2.79,10.7-2.01,13.59s1.71,7.48,4.16,9.99Z"/>
  <path class="cls-1" d="M366.32,656.91l-132.37-97.68c-54.18-41.86-86.85-105.66-88.71-174.78l-.07-150.06,220.91-163.56,221.24,163.67-.1,145.29c-.71,71.71-34.32,137.81-90.81,180.81l-130.09,96.32Z"/>
  <polygon class="cls-6" points="592.6 282.79 690.28 340.39 591.5 397.11 592.6 282.79"/>
  <polygon class="cls-2" points="592.5 397.22 691.28 340.5 592.5 340.5 592.5 397.22"/>
  <polygon class="cls-6" points="143.17 397.09 43.83 342.4 140.9 282.79 143.17 397.09"/>
  <polygon class="cls-2" points="140.26 400.01 41.48 343.3 140.26 343.3 140.26 400.01"/>
  <polygon class="cls-6" points="452.17 132 554.98 84.14 545.75 197.68 452.17 132"/>
  <polygon class="cls-6" points="280.5 129.11 176.39 84.14 188.8 197.38 280.5 129.11"/>
  <polygon class="cls-2" points="548.01 197.75 555.32 84.07 500.74 166.41 548.01 197.75"/>
  <polygon class="cls-2" points="183.7 197.6 176.39 83.92 230.98 166.26 183.7 197.6"/>
</svg>